#!OML:ASF F:\twosubjects\two\wednesday\Session 1\rory1.ASF
:FULLY-SPECIFIED
:DEGREES
131
root 1.99824 18.3752 5.39507 1.76799 -5.48578 2.99767
lowerback 1.72097 1.97033 -3.16982
upperback 1.34107 2.58788 -1.7055
thorax 0.349898 1.27841 -0.0106343
lowerneck -13.9895 -2.55253 -3.99003
upperneck 10.8846 -2.96646 2.30508
head 5.67131 -1.43897 1.10923
rclavicle -9.06955e-015 3.77691e-015
rhumerus -23.7511 4.50432 -86.4912
rradius 48.4483
rwrist -1.79837
rhand -20.0585 39.764
rfingers 7.12502
rthumb 6.28332 9.87719
lclavicle -9.06955e-015 3.77691e-015
lhumerus -46.846 -32.7212 73.8116
lradius 89.5939
lwrist 4.06747
lhand -26.3007 7.43027
lfingers 7.12502
lthumb 0.255307 37.4099
rfemur -0.404532 7.38018 19.6738
rtibia 48.5324
rfoot 18.2503 14.2221
rtoes 1.85436
lfemur -22.9837 -4.87588 -22.9297
ltibia 27.8128
lfoot -5.55361 0.66243
ltoes -4.67746
132
root 2.01365 18.3753 5.5721 1.67862 -5.78151 3.10834
lowerback 1.87746 1.96318 -3.12622
upperback 1.22251 2.56761 -1.85401
thorax 0.149835 1.27218 -0.195004
lowerneck -13.6606 -2.42821 -3.85626
upperneck 10.6598 -2.82571 2.23512
head 5.5383 -1.37183 1.08208
rclavicle -2.25621e-014 -8.15017e-015
rhumerus -24.5567 4.06096 -86.7017
rradius 47.3691
rwrist -1.68471
rhand -19.6262 39.2996
rfingers 7.12502
rthumb 6.70064 9.42566
lclavicle -2.25621e-014 -8.15017e-015
lhumerus -47.4083 -32.4113 73.5839
lradius 89.8146
lwrist 4.42991
lhand -26.2815 7.35041
lfingers 7.12502
lthumb 0.273899 37.33
rfemur -2.02875 7.56899 19.3387
rtibia 51.1932
rfoot 18.7722 13.5524
rtoes 2.73702
lfemur -22.1683 -4.67041 -23.2435
ltibia 27.7414
lfoot -6.41984 0.600591
ltoes -8.50699
133
root 2.02537 18.3917 5.75414 1.70408 -6.01469 3.33485
lowerback 1.87741 2.00412 -3.25377
upperback 1.10819 2.61612 -1.91502
thorax 0.0289317 1.29808 -0.190099
lowerneck -13.4354 -2.44969 -4.06681
upperneck 10.5466 -2.81501 2.1861
head 5.46744 -1.38006 1.10399
rclavicle 1.96051e-014 2.0276e-014
rhumerus -25.305 3.40996 -86.5883
rradius 46.2512
rwrist -1.31181
rhand -18.9429 38.5078
rfingers 7.12502
rthumb 7.36022 8.65584
lclavicle 1.96051e-014 2.0276e-014
lhumerus -47.7302 -32.0774 73.6062
lradius 89.9105
lwrist 4.37823
lhand -27.1904 7.51607
lfingers 7.12502
lthumb -0.603959 37.495
rfemur -3.7545 7.72875 18.8742
rtibia 53.6223
rfoot 18.6894 12.4389
rtoes 4.05511
lfemur -21.5211 -4.47935 -23.6639
ltibia 27.8194
lfoot -7.30472 0.490335
ltoes -11.1867
134
root 2.03411 18.4071 5.93844 1.45582 -6.10123 3.74691
lowerback 2.10861 2.09679 -3.56356
upperback 0.972111 2.71686 -2.00935
thorax -0.251649 1.35177 -0.129287
lowerneck -12.76 -2.5449 -4.3516
upperneck 10.3347 -2.91989 2.20731
head 5.29701 -1.44491 1.15476
rclavicle 3.11595e-014 -4.27387e-014
rhumerus -26.4953 2.52187 -86.396
rradius 45.4153
rwrist -1.0536
rhand -18.3877 38.2136
rfingers 7.12502
rthumb 7.8962 8.38111
lclavicle 3.11595e-014 -4.27387e-014
lhumerus -48.2321 -32.047 73.8866
lradius 89.8901
lwrist 4.41449
lhand -29.1512 8.14849
lfingers 7.12502
lthumb -2.49775 38.1136
rfemur -4.97104 7.68646 18.2254
rtibia 55.6788
rfoot 17.722 11.5915
rtoes 3.63307
lfemur -20.4809 -4.32556 -24.3095
ltibia 27.6249
lfoot -7.71338 0.413639
ltoes -9.98154
135
root 2.04124 18.3944 6.10791 1.10361 -5.87367 3.98497
lowerback 2.27532 1.97525 -3.64858
upperback 1.35937 2.55842 -2.21379
thorax 0.0622397 1.26563 -0.284636
lowerneck -13.6634 -2.5078 -4.0779
upperneck 10.5991 -2.88095 2.17748
head 5.52396 -1.41193 1.09487
rclavicle 1.22253e-014 2.18663e-014
rhumerus -26.6639 1.98042 -86.5574
rradius 44.5176
rwrist -1.07385
rhand -18.0946 38.1091
rfingers 7.12502
rthumb 8.17905 8.28739
lclavicle 1.22253e-014 2.18663e-014
lhumerus -47.8925 -31.903 73.2625
lradius 90.01
lwrist 5.09107
lhand -29.9122 8.39172
lfingers 7.12502
lthumb -3.23267 38.347
rfemur -5.74046 7.28729 17.7776
rtibia 57.538
rfoot 15.992 10.0913
rtoes 4.53386
lfemur -19.5761 -4.31777 -24.7588
ltibia 27.6321
lfoot -8.06358 0.202102
ltoes -7.54861
136
root 2.08578 18.3946 6.39312 0.119357 -5.72751 6.06307
lowerback 1.19502 1.92938 -5.06434
upperback 2.18188 2.59537 -2.8857
thorax 1.48581 1.24218 -0.130927
lowerneck -14.1242 -2.57411 -4.2028
upperneck 10.7946 -2.93235 2.20879
head 5.6661 -1.43736 1.11512
rclavicle -3.98066e-014 3.06128e-014
rhumerus -26.9922 1.53929 -86.406
rradius 43.6655
rwrist -1.1548
rhand -18.1536 37.5244
rfingers 7.12502
rthumb 8.12206 7.70053
lclavicle -3.98066e-014 3.06128e-014
lhumerus -47.5337 -32.0614 73.0304
lradius 90.0507
lwrist 6.09909
lhand -28.6696 8.67311
lfingers 7.12502
lthumb -2.03263 38.6432
rfemur -5.3005 6.18295 14.6424
rtibia 58.9981
rfoot 13.3912 8.82648
rtoes 10.4075
lfemur -17.4086 -4.51309 -27.616
ltibia 27.5282
lfoot -9.25351 0.226318
ltoes -6.63922
137
root 2.06739 18.4157 6.50185 0.635053 -5.7251 4.27149
lowerback 1.71664 1.92937 -3.70733
upperback 1.72995 2.54284 -2.1957
thorax 0.752731 1.24542 -0.204177
lowerneck -13.7473 -2.64591 -4.47957
upperneck 10.9957 -2.96481 2.00217
head 5.66933 -1.48389 1.09461
rclavicle 5.76476e-014 -2.40529e-014
rhumerus -27.9173 0.988571 -85.9855
rradius 42.6908
rwrist -0.585029
rhand -17.9626 36.81
rfingers 7.12502
rthumb 8.30643 6.99335
lclavicle 5.76476e-014 -2.40529e-014
lhumerus -47.7994 -32.2713 73.3573
lradius 89.9775
lwrist 6.80741
lhand -27.8732 8.84383
lfingers 7.12502
lthumb -1.26343 38.8198
rfemur -7.69692 6.19628 16.8697
rtibia 60.7429
rfoot 11.1871 4.60132
rtoes 17.8731
lfemur -17.5155 -4.42875 -25.5227
ltibia 27.5284
lfoot -9.4148 0.0110628
ltoes -6.42142
138
root 2.06605 18.4379 6.6594 0.722443 -5.57977 3.65468
lowerback 2.17947 1.78732 -3.35163
upperback 1.37747 2.32009 -1.89388
thorax 0.137631 1.14627 -0.112611
lowerneck -13.445 -2.52104 -4.36956
upperneck 11.349 -2.78648 1.65491
head 5.71812 -1.42255 0.985225
rclavicle 3.81667e-014 1.37161e-014
rhumerus -28.9176 0.520067 -85.7217
rradius 41.6365
rwrist 0.382301
rhand -17.1963 36.219
rfingers 7.12502
rthumb 9.04589 6.43299
lclavicle 3.81667e-014 1.37161e-014
lhumerus -48.4893 -31.9121 73.5718
lradius 89.9925
lwrist 6.95844
lhand -28.5958 8.55321
lfingers 7.12502
lthumb -1.96136 38.5239
rfemur -9.35336 5.94369 17.5222
rtibia 62.2593
rfoot 11.6184 2.20376
rtoes 14.3092
lfemur -16.9176 -4.36331 -24.9276
ltibia 27.3859
lfoot -9.75844 -0.312055
ltoes -6.49855
139
root 2.07259 18.4506 6.83595 0.670744 -5.47358 3.95858
lowerback 2.26978 1.65191 -3.71674
upperback 1.40245 2.1288 -2.00766
thorax 0.108641 1.04892 -0.0238566
lowerneck -13.8889 -2.35259 -3.93567
upperneck 11.6448 -2.5959 1.44014
head 5.87102 -1.32676 0.859291
rclavicle -5.96354e-016 1.78906e-015
rhumerus -29.449 0.195637 -85.7288
rradius 40.7755
rwrist 0.721849
rhand -16.6785 35.6314
rfingers 7.12502
rthumb 9.54553 5.86759
lclavicle -5.96354e-016 1.78906e-015
lhumerus -48.477 -31.4093 73.2678
lradius 89.8517
lwrist 6.87372
lhand -29.2218 8.25372
lfingers 7.12502
lthumb -2.56596 38.218
rfemur -10.7356 5.6017 16.9929
rtibia 63.7558
rfoot 10.3406 4.08051
rtoes -1.91488
lfemur -16.2524 -4.36045 -25.4302
ltibia 27.4584
lfoot -10.4706 -0.423823
ltoes -8.27323
140
root 2.07875 18.4624 7.00718 0.759454 -5.46479 3.93997
lowerback 2.19789 1.65337 -3.68856
upperback 1.37637 2.13426 -2.03096
thorax 0.123833 1.05194 -0.0617336
lowerneck -13.9448 -2.32666 -3.71429
upperneck 11.7401 -2.58411 1.30601
head 5.90536 -1.3218 0.781245
rclavicle 5.46658e-016 -2.10712e-014
rhumerus -30.1252 -0.225144 -85.6003
rradius 39.937
rwrist 0.753461
rhand -16.4626 35.0949
rfingers 7.12502
rthumb 9.75383 5.34082
lclavicle 5.46658e-016 -2.10712e-014
lhumerus -48.4357 -31.3307 73.1205
lradius 89.7599
lwrist 6.67353
lhand -29.3812 7.9409
lfingers 7.12502
lthumb -2.71986 37.9033
rfemur -12.2124 5.23757 16.8348
rtibia 65.0104
rfoot 9.68769 2.67832
rtoes -1.19716
lfemur -15.6092 -4.53123 -25.5439
ltibia 27.1789
lfoot -11.1057 -0.140524
ltoes -9.81858
141
root 2.0824 18.4817 7.19107 0.745973 -5.13801 3.96431
lowerback 2.21186 1.62452 -3.80004
upperback 1.16988 2.08539 -1.92335
thorax -0.102607 1.03162 0.107458
lowerneck -13.389 -2.37118 -3.79931
upperneck 11.9145 -2.63338 1.18254
head 5.86833 -1.36268 0.75618
rclavicle 4.4975e-015 -7.95139e-016
rhumerus -31.4201 -0.848885 -85.0805
rradius 39.2012
rwrist 1.20583
rhand -15.9289 34.7652
rfingers 7.12502
rthumb 10.2688 5.03586
lclavicle 4.4975e-015 -7.95139e-016
lhumerus -48.9235 -31.3639 73.4807
lradius 89.8367
lwrist 6.40516
lhand -29.3791 7.65263
lfingers 7.12502
lthumb -2.71787 37.6151
rfemur -13.5455 4.47217 16.6515
rtibia 66.0934
rfoot 8.6894 1.00681
rtoes -1.04886
lfemur -14.812 -4.78004 -25.7407
ltibia 26.8708
lfoot -11.5906 -0.0781868
ltoes -10.3689
